<?xml version="1.0" standalone="no"?>
<!DOCTYPE svg PUBLIC "-//W3C//DTD SVG 20010904//EN"
 "http://www.w3.org/TR/2001/REC-SVG-20010904/DTD/svg10.dtd">
<svg version="1.0" xmlns="http://www.w3.org/2000/svg"
 width="576.000000pt" height="431.000000pt" viewBox="0 0 576.000000 431.000000"
 preserveAspectRatio="xMidYMid meet">

<g transform="translate(0.000000,431.000000) scale(0.100000,-0.100000)"
fill="#000000" stroke="none">
<path d="M5755 2155 c0 -1188 1 -1673 2 -1077 2 596 2 1568 0 2160 -1 592 -2
105 -2 -1083z"/>
<path d="M2 3913 c3 -315 5 -367 18 -371 13 -4 13 -3 2 11 -17 20 -12 62 8 63
8 1 21 2 28 3 6 0 12 12 12 26 0 23 4 25 40 25 38 0 40 -2 40 -30 0 -23 4 -30
20 -30 11 0 20 7 20 15 0 8 9 15 20 15 11 0 20 7 20 15 0 11 -11 15 -40 15
l-40 0 0 40 c0 33 3 40 20 40 17 0 20 7 20 40 0 33 -3 40 -20 40 -16 0 -20 7
-20 38 0 45 17 67 38 50 16 -14 32 4 32 37 1 61 7 65 91 65 64 0 79 -3 79 -15
0 -12 -16 -15 -80 -15 l-80 0 0 -39 c0 -40 0 -40 43 -44 l42 -4 -42 -1 c-41
-2 -43 -4 -43 -32 0 -28 2 -30 43 -32 l42 -1 -45 -7 c-57 -9 -12 -12 56 -4 47
6 50 8 46 30 -5 26 -22 33 -22 9 0 -25 -17 -17 -24 11 -9 33 -1 42 24 26 12
-7 20 -8 20 -2 0 5 9 10 20 10 11 0 20 -6 20 -14 0 -8 4 -16 9 -18 13 -5 24
-48 12 -48 -6 0 -11 -18 -11 -40 0 -33 3 -40 20 -40 17 0 20 7 20 40 0 38 1
40 33 40 30 0 32 2 33 35 0 26 -3 34 -13 31 -7 -3 -13 -1 -13 4 0 6 -8 10 -17
11 -16 0 -16 1 1 8 11 4 30 6 43 3 22 -4 27 -17 26 -74 0 -11 8 -18 19 -18 14
0 18 9 19 43 l2 42 6 -40 c3 -22 3 -41 -2 -43 -15 -7 -6 -22 14 -22 11 0 18 3
16 8 -3 4 14 5 38 4 36 -3 45 0 55 17 6 12 19 20 28 19 12 -2 18 5 20 25 2 15
-1 27 -7 27 -6 0 -11 -8 -11 -17 -1 -17 -1 -17 -14 0 -9 12 -27 17 -63 17 -49
0 -50 0 -63 40 -12 37 -30 54 -30 29 0 -5 -4 -7 -10 -4 -5 3 -10 -2 -10 -12 0
-11 -3 -14 -8 -7 -4 6 -25 16 -47 22 -23 6 -31 10 -19 11 19 1 23 8 26 49 5
53 -14 110 -20 60 -2 -19 -9 -28 -22 -28 -10 0 -21 -6 -24 -12 -4 -9 -8 -10
-11 -2 -3 6 -13 20 -21 30 -15 18 -15 18 -9 -8 3 -16 1 -28 -5 -28 -5 0 -10 6
-10 14 0 17 -39 25 -68 15 -20 -8 -22 -5 -22 31 0 33 -3 40 -20 40 -17 0 -20
-7 -20 -40 0 -22 -4 -40 -10 -40 -5 0 -10 18 -10 40 0 22 -4 40 -10 40 -5 0
-7 -12 -4 -27 2 -16 0 -35 -6 -43 -9 -13 -11 -13 -20 0 -6 8 -8 27 -6 42 4 20
1 28 -13 33 -13 4 -18 15 -17 38 l1 32 82 3 82 3 -1 -36 c-1 -19 2 -38 6 -42
10 -10 27 19 21 35 -3 8 -5 22 -5 33 0 18 -10 19 -167 21 l-168 2 120 6 c87 4
105 7 65 10 -32 2 7 7 95 10 150 6 150 6 -73 8 l-223 2 3 -367z m148 306 c0
-6 -6 -9 -14 -6 -7 3 -18 1 -24 -5 -6 -6 -15 -7 -21 -4 -22 14 -10 26 24 26
19 0 35 -5 35 -11z m-36 -54 c4 -10 -1 -15 -14 -15 -13 0 -18 5 -14 15 4 8 10
15 14 15 4 0 10 -7 14 -15z m-47 -77 c-3 -7 -5 -2 -5 12 0 14 2 19 5 13 2 -7
2 -19 0 -25z m379 -135 c7 -35 4 -40 -23 -46 -4 -1 -8 17 -8 40 0 54 21 58 31
6z m-368 -94 c7 -12 11 -23 8 -26 -9 -9 -57 27 -51 37 10 16 29 11 43 -11z
m632 11 c0 -5 -18 -10 -40 -10 -22 0 -40 5 -40 10 0 6 18 10 40 10 22 0 40 -4
40 -10z m-560 -80 c0 -17 -7 -20 -40 -20 -33 0 -40 3 -40 20 0 17 7 20 40 20
33 0 40 -3 40 -20z"/>
<path d="M318 4253 c6 -2 18 -2 25 0 6 3 1 5 -13 5 -14 0 -19 -2 -12 -5z"/>
<path d="M398 4233 c7 -3 16 -2 19 1 4 3 -2 6 -13 5 -11 0 -14 -3 -6 -6z"/>
<path d="M248 4213 c-11 -3 -18 -14 -18 -28 0 -21 4 -24 41 -23 37 0 40 2 37
27 -3 26 -23 35 -60 24z"/>
<path d="M446 4138 c3 -5 10 -6 15 -3 13 9 11 12 -6 12 -8 0 -12 -4 -9 -9z"/>
<path d="M350 4100 c0 -5 9 -10 20 -10 11 0 20 5 20 10 0 6 -9 10 -20 10 -11
0 -20 -4 -20 -10z"/>
<path d="M621 4081 c-1 -9 -10 -12 -28 -8 -43 8 -53 -1 -52 -47 1 -22 4 -31 6
-18 4 18 11 22 44 22 32 0 39 -3 39 -20 0 -15 7 -20 25 -20 28 0 25 24 -6 40
-9 6 -20 22 -22 37 -2 16 -5 22 -6 14z"/>
<path d="M2012 3967 c-36 -38 -107 -168 -117 -214 -4 -18 -11 -36 -17 -39 -7
-5 -9 1 -5 17 14 59 29 177 25 195 -4 14 -12 3 -32 -40 -43 -95 -58 -169 -62
-331 -4 -126 -7 -152 -23 -170 -30 -33 -78 -126 -101 -195 -44 -133 -63 -341
-39 -436 10 -38 9 -56 -6 -107 -28 -101 -25 -93 -35 -77 -6 9 -10 10 -10 3 0
-6 4 -14 10 -18 14 -8 2 -33 -46 -95 -85 -111 -223 -237 -345 -316 -37 -24
-79 -58 -94 -76 -24 -29 -27 -38 -23 -93 5 -81 46 -140 125 -180 47 -23 72
-29 152 -33 53 -2 113 0 135 6 l38 11 -6 -38 c-8 -50 -24 -286 -35 -499 -10
-192 -14 -208 -107 -398 -86 -175 -109 -279 -80 -361 l14 -40 -114 -214 c-62
-118 -114 -217 -114 -221 0 -5 533 -8 1184 -8 1094 0 1184 1 1190 17 4 9 18
109 32 222 21 174 91 638 110 734 4 20 16 33 37 42 45 19 82 61 111 128 14 31
32 57 39 57 7 0 29 14 49 30 20 17 54 37 75 44 115 41 199 149 220 286 3 19
20 51 38 71 60 67 88 178 66 257 -12 40 -22 42 174 -33 175 -67 208 -75 267
-66 53 9 73 22 94 62 41 80 -6 204 -113 295 -60 51 -98 72 -203 117 -83 36
-197 50 -369 45 -91 -3 -178 -10 -193 -16 -33 -14 -34 -12 -8 30 53 86 77 249
51 345 -17 63 -70 135 -119 161 -57 32 -102 24 -138 -24 -27 -35 -27 -35 -28
-227 -1 -210 -9 -250 -73 -354 -15 -26 -45 -74 -65 -107 -92 -149 -125 -263
-109 -367 6 -33 17 -74 25 -91 12 -23 13 -35 5 -50 -48 -90 -77 -265 -60 -363
11 -60 10 -70 -13 -128 -38 -98 -139 -433 -161 -535 -3 -17 -11 -32 -15 -32
-17 0 -181 204 -235 291 -29 47 -77 130 -105 184 -47 89 -54 111 -70 219 -26
168 -72 276 -146 341 -16 13 -30 47 -43 101 l-21 81 34 63 34 64 6 -40 c4 -21
16 -86 28 -144 11 -58 21 -117 22 -132 0 -16 4 -28 7 -28 3 0 26 -50 49 -111
54 -141 81 -188 130 -233 50 -45 91 -48 117 -10 32 49 21 88 -70 257 -79 147
-179 409 -207 540 -11 53 -10 64 13 130 14 40 30 95 37 122 7 28 15 54 18 60
3 5 7 24 9 42 3 23 18 46 51 80 149 148 235 331 235 498 0 70 -22 158 -51 203
-9 15 -15 51 -16 105 -1 73 -4 89 -29 126 -17 26 -45 50 -72 63 -42 21 -50 21
-117 10 -40 -7 -91 -24 -114 -37 l-42 -25 -10 43 c-12 46 -101 145 -155 173
l-28 15 45 40 c25 23 46 49 46 59 0 17 -2 17 -58 0 -60 -19 -152 -36 -152 -28
0 3 27 26 59 51 63 48 141 139 141 163 0 10 -10 12 -44 8 -35 -5 -63 0 -135
26 -100 36 -137 36 -218 0 -46 -20 -125 -95 -149 -142 -9 -17 -18 -27 -21 -24
-6 5 52 170 67 191 13 19 19 44 11 49 -4 3 -22 -9 -39 -27z m36 -872 c12 -25
18 -45 13 -45 -5 0 -12 10 -15 23 -11 41 -23 52 -40 38 -19 -16 -21 -6 -3 14
18 21 21 19 45 -30z m1001 -26 c49 -112 32 -269 -44 -415 -42 -81 -72 -121
-145 -195 -66 -67 -79 -74 -175 -99 -68 -17 -81 -18 -142 -5 -134 27 -222 69
-345 167 -29 23 -43 27 -69 23 -62 -11 -189 -94 -189 -123 0 -18 20 -14 27 6
9 23 35 42 51 37 6 -2 12 1 12 9 0 14 88 62 97 53 3 -3 0 -29 -7 -57 -7 -28
-10 -53 -7 -56 3 -3 11 20 18 50 8 37 17 56 27 56 8 0 41 -19 73 -42 51 -37
59 -48 60 -78 2 -31 3 -32 6 -7 2 15 6 27 7 27 1 0 25 -11 52 -25 27 -14 67
-30 89 -36 22 -6 46 -18 53 -27 6 -9 12 -11 12 -5 0 11 67 7 79 -4 3 -2 -11
-18 -31 -36 -19 -17 -37 -39 -40 -47 -3 -8 -9 -12 -13 -8 -4 4 -2 14 5 23 10
12 10 15 -3 15 -8 0 -17 -6 -20 -12 -2 -9 -31 -13 -95 -13 -54 0 -85 -3 -77
-8 19 -10 123 -12 153 -3 40 13 25 -17 -26 -51 -59 -39 -159 -64 -173 -42 -6
10 -9 10 -9 2 0 -7 -7 -13 -16 -13 -65 0 -158 111 -151 180 2 19 2 27 0 18 -6
-26 -20 -22 -31 10 -11 31 -70 98 -79 89 -3 -3 7 -19 23 -35 16 -16 48 -68 72
-115 52 -107 95 -152 152 -162 102 -17 205 26 318 134 60 57 82 71 125 81 29
7 65 19 80 27 16 8 31 12 34 9 16 -16 -82 -316 -142 -436 -94 -185 -94 -186
-185 -283 -60 -65 -89 -83 -137 -88 -28 -3 -36 3 -88 71 -50 64 -61 86 -81
167 -36 140 -98 250 -169 295 -19 13 -35 29 -35 36 0 6 -3 12 -7 12 -48 2
-123 15 -143 26 -14 7 -40 26 -59 42 -32 26 -35 34 -39 95 -4 54 0 75 21 121
37 79 119 159 209 200 106 50 203 55 156 8 -6 -6 -9 -14 -6 -17 3 -3 22 20 43
52 43 65 137 161 142 146 2 -6 -10 -34 -26 -62 -46 -78 -22 -60 29 21 48 77
150 204 180 225 21 15 24 12 34 -32 21 -87 76 -125 179 -125 56 0 76 5 133 35
38 20 75 43 84 53 44 48 90 112 110 150 12 23 26 42 30 42 4 0 17 -23 29 -51z
m-1069 14 c0 -5 -14 -24 -32 -43 -36 -41 -35 -27 2 19 26 33 30 36 30 24z
m100 -53 c0 -5 -2 -10 -4 -10 -3 0 -8 5 -11 10 -3 6 -1 10 4 10 6 0 11 -4 11
-10z m50 -110 c0 -8 -12 7 -25 33 -14 27 -25 51 -25 55 1 14 50 -73 50 -88z
m25 -41 c4 -11 4 -23 1 -26 -3 -4 -6 1 -6 11 0 9 -4 14 -10 11 -5 -3 -10 1
-10 9 0 23 18 20 25 -5z m-194 -26 c13 -16 12 -17 -3 -4 -10 7 -18 15 -18 17
0 8 8 3 21 -13z m220 -78 c-3 -5 -7 -2 -9 8 -2 9 -7 17 -12 17 -4 0 -6 10 -3
21 6 20 7 20 18 -7 7 -16 10 -33 6 -39z m1646 36 c48 -22 87 -75 109 -147 28
-94 12 -207 -49 -332 -18 -37 -36 -76 -40 -87 -7 -19 -7 -19 8 -1 21 28 128
45 281 46 264 0 424 -52 557 -183 67 -67 100 -137 94 -201 -7 -74 -36 -96
-128 -96 -61 0 -87 7 -211 56 -146 58 -311 108 -331 101 -7 -2 8 -9 33 -16 65
-17 73 -23 87 -70 13 -46 5 -112 -21 -174 -36 -87 -142 -159 -262 -180 -123
-21 -232 41 -269 153 -27 81 -3 169 59 213 27 19 41 22 111 19 154 -7 200 -7
229 1 45 13 26 16 -29 6 -34 -7 -76 -6 -131 2 -111 16 -166 7 -209 -36 -43
-44 -63 -123 -47 -186 10 -40 9 -44 -23 -81 -33 -39 -55 -101 -55 -155 0 -15
11 -51 24 -80 34 -73 84 -104 176 -111 39 -2 70 -8 70 -13 0 -12 -101 -56
-146 -63 -55 -8 -123 16 -161 57 -81 86 -86 300 -10 415 13 21 32 51 41 67
l18 30 -26 -30 c-15 -16 -38 -49 -52 -72 -14 -24 -30 -43 -34 -43 -5 0 -19 21
-32 48 -19 39 -23 62 -23 142 0 88 3 100 37 172 20 42 55 104 77 137 116 170
145 276 135 490 -6 142 -6 147 16 174 21 27 51 45 75 46 6 0 29 -8 52 -18z
m-1817 -40 c0 -9 5 -22 10 -27 15 -15 21 -54 9 -54 -5 0 -9 6 -7 13 1 6 -7 31
-19 54 -14 29 -16 40 -7 36 8 -3 14 -13 14 -22z m115 -61 c-3 -5 -14 -10 -23
-9 -14 0 -13 2 3 9 27 11 27 11 20 0z m1601 -1124 c60 -62 115 -80 211 -73 56
4 92 13 136 35 l59 30 -5 -35 c-8 -45 -48 -131 -80 -168 -86 -102 -282 -125
-380 -44 -50 41 -75 123 -58 189 11 40 54 110 68 110 3 0 25 -20 49 -44z
m-242 -23 c-41 -232 70 -413 234 -383 52 9 55 -6 16 -67 -40 -61 -99 -96 -153
-90 -53 6 -86 29 -128 90 -41 62 -57 139 -50 252 5 84 35 201 60 233 21 26 29
12 21 -35z"/>
<path d="M2097 2380 c3 -11 9 -17 14 -15 10 7 1 35 -11 35 -5 0 -6 -9 -3 -20z"/>
<path d="M2248 2260 c27 -26 42 -29 42 -7 0 7 -15 17 -34 23 l-35 11 27 -27z"/>
<path d="M2020 2226 c0 -3 14 -45 32 -93 68 -190 141 -234 267 -162 53 30 167
137 157 147 -3 2 -36 -23 -73 -56 -92 -81 -143 -106 -199 -97 -58 8 -92 50
-140 172 -32 81 -44 105 -44 89z"/>
<path d="M630 3939 c0 -6 49 -19 71 -19 5 0 9 7 9 15 0 12 -10 15 -40 13 -22
-1 -40 -5 -40 -9z"/>
<path d="M470 3795 c0 -9 6 -12 15 -9 8 4 12 10 9 15 -8 14 -24 10 -24 -6z"/>
<path d="M670 3774 c0 -14 -3 -14 -15 -4 -17 14 -31 8 -20 -9 6 -11 75 -16 75
-5 0 7 -27 34 -34 34 -3 0 -6 -7 -6 -16z"/>
<path d="M358 3705 c-3 -40 4 -55 28 -55 2 0 4 23 4 50 0 36 -4 50 -14 50 -9
0 -15 -15 -18 -45z"/>
<path d="M230 3710 c0 -17 7 -20 40 -20 33 0 40 3 40 20 0 17 -7 20 -40 20
-33 0 -40 -3 -40 -20z"/>
<path d="M510 3710 c0 -11 7 -20 15 -20 8 0 15 9 15 20 0 11 -7 20 -15 20 -8
0 -15 -9 -15 -20z"/>
<path d="M598 3723 c6 -2 18 -2 25 0 6 3 1 5 -13 5 -14 0 -19 -2 -12 -5z"/>
<path d="M790 3710 c0 -5 5 -10 10 -10 6 0 10 5 10 10 0 6 -4 10 -10 10 -5 0
-10 -4 -10 -10z"/>
<path d="M870 3710 c0 -5 18 -10 40 -10 29 0 40 -4 40 -15 0 -9 9 -15 25 -15
28 0 25 24 -6 40 -23 13 -99 13 -99 0z"/>
<path d="M630 3690 c0 -5 -8 -10 -18 -10 -12 0 -18 -8 -20 -25 -1 -16 3 -25
13 -25 8 0 15 8 16 18 0 10 3 12 6 5 2 -7 13 -13 24 -13 10 0 19 -7 19 -15 0
-8 9 -15 20 -15 17 0 20 7 20 45 l0 45 -40 0 c-22 0 -40 -4 -40 -10z"/>
<path d="M547 3673 c-4 -3 -7 -24 -7 -45 0 -29 -4 -38 -17 -38 -15 0 -16 -2
-3 -10 20 -13 28 -12 32 3 2 8 17 -1 39 -25 23 -25 31 -38 21 -38 -9 0 -13 -2
-10 -5 3 -3 28 0 57 6 40 8 51 15 51 30 0 18 -6 20 -55 23 -11 1 -22 11 -26
26 -4 15 -7 18 -8 8 -2 -26 -43 -8 -60 27 -11 23 -11 29 0 36 8 5 9 9 3 9 -6
0 -14 -3 -17 -7z"/>
<path d="M400 3630 c0 -22 5 -40 10 -40 6 0 10 18 10 40 0 22 -4 40 -10 40 -5
0 -10 -18 -10 -40z"/>
<path d="M493 3630 c0 -25 2 -35 4 -22 2 12 2 32 0 45 -2 12 -4 2 -4 -23z"/>
<path d="M260 3630 c0 -5 5 -10 10 -10 6 0 10 5 10 10 0 6 -4 10 -10 10 -5 0
-10 -4 -10 -10z"/>
<path d="M70 3600 c0 -5 5 -10 10 -10 6 0 10 5 10 10 0 6 -4 10 -10 10 -5 0
-10 -4 -10 -10z"/>
<path d="M360 3600 c-13 -8 -13 -10 2 -10 13 0 18 -11 21 -42 3 -41 4 -41 5
10 2 53 -2 59 -28 42z"/>
<path d="M106 3573 c-8 -30 10 -56 23 -34 9 14 4 48 -9 56 -4 3 -11 -7 -14
-22z"/>
<path d="M790 3580 c0 -16 -7 -20 -30 -20 -16 0 -30 -4 -30 -10 0 -5 13 -10
30 -10 23 0 31 5 36 25 7 29 22 32 40 8 12 -16 13 -16 14 -1 0 9 6 19 13 21 6
3 -7 6 -30 6 -37 1 -43 -2 -43 -19z"/>
<path d="M1040 3556 c0 -2 8 -10 18 -17 15 -13 16 -12 3 4 -13 16 -21 21 -21
13z"/>
<path d="M1080 3545 c0 -8 7 -15 15 -15 8 0 15 7 15 15 0 8 -7 15 -15 15 -8 0
-15 -7 -15 -15z"/>
<path d="M351 3534 c0 -11 3 -14 6 -6 3 7 2 16 -1 19 -3 4 -6 -2 -5 -13z"/>
<path d="M445 3520 c-3 -5 1 -10 9 -10 9 0 16 5 16 10 0 6 -4 10 -9 10 -6 0
-13 -4 -16 -10z"/>
<path d="M520 3520 c-12 -8 -11 -10 8 -10 12 0 22 5 22 10 0 13 -11 13 -30 0z"/>
<path d="M241 3513 c24 -6 34 -65 14 -79 -14 -10 -11 -16 18 -48 19 -20 39
-36 46 -36 13 0 15 47 2 52 -9 4 -22 88 -13 86 4 -1 18 2 32 7 l25 9 -30 7
c-32 7 -121 10 -94 2z m66 -9 c-3 -3 -12 -4 -19 -1 -8 3 -5 6 6 6 11 1 17 -2
13 -5z m-7 -60 c0 -8 -4 -12 -10 -9 -5 3 -10 10 -10 16 0 5 5 9 10 9 6 0 10
-7 10 -16z"/>
<path d="M0 3470 c0 -22 5 -40 10 -40 6 0 10 18 10 40 0 22 -4 40 -10 40 -5 0
-10 -18 -10 -40z"/>
<path d="M845 3500 c-17 -7 -17 -9 -2 -9 11 -1 17 -9 17 -26 0 -17 -6 -25 -17
-26 -13 0 -12 -3 5 -10 15 -5 36 -6 55 0 18 5 24 10 15 10 -12 1 -18 9 -18 26
0 17 6 25 18 26 14 0 14 2 -3 9 -11 5 -27 9 -35 9 -8 0 -24 -4 -35 -9z"/>
<path d="M950 3500 c0 -5 5 -10 10 -10 6 0 10 5 10 10 0 6 -4 10 -10 10 -5 0
-10 -4 -10 -10z"/>
<path d="M180 3490 c0 -5 5 -10 10 -10 6 0 10 5 10 10 0 6 -4 10 -10 10 -5 0
-10 -4 -10 -10z"/>
<path d="M494 3479 c-10 -17 13 -36 27 -22 12 12 4 33 -11 33 -5 0 -12 -5 -16
-11z"/>
<path d="M631 3474 c0 -11 3 -14 6 -6 3 7 2 16 -1 19 -3 4 -6 -2 -5 -13z"/>
<path d="M1763 3420 c0 -24 2 -26 14 -14 12 12 12 16 0 28 -12 12 -14 10 -14
-14z"/>
<path d="M568 3422 c-10 -2 -18 -12 -18 -23 0 -11 7 -20 18 -20 49 -4 67 -2
66 9 -1 7 -2 18 -3 25 -1 12 -31 17 -63 9z"/>
<path d="M2670 3420 c-8 -5 -12 -12 -9 -15 4 -3 12 1 19 10 14 17 11 19 -10 5z"/>
<path d="M4 3360 c1 -7 5 -11 9 -11 4 1 15 1 24 1 14 0 14 3 5 12 -10 10 -15
10 -21 -1 -6 -9 -10 -10 -14 -2 -4 7 -5 8 -3 1z"/>
<path d="M1270 3358 c0 -11 28 -10 35 1 3 6 -4 9 -15 8 -11 -1 -20 -5 -20 -9z"/>
<path d="M1336 3341 c5 -22 0 -34 -20 -54 -14 -14 -26 -29 -26 -32 0 -14 55
-2 71 16 16 19 16 23 4 36 -8 8 -15 25 -15 39 0 13 -4 24 -10 24 -5 0 -7 -13
-4 -29z"/>
<path d="M598 3343 c7 -3 16 -2 19 1 4 3 -2 6 -13 5 -11 0 -14 -3 -6 -6z"/>
<path d="M1670 3333 c0 -7 -11 -15 -25 -19 -14 -3 -25 -10 -25 -15 0 -5 -6 -9
-14 -9 -8 0 -16 -7 -20 -15 -3 -8 -16 -16 -28 -16 -18 -1 -19 -2 -5 -6 10 -3
33 2 52 11 18 9 40 16 49 16 21 0 37 32 25 51 -6 9 -9 10 -9 2z"/>
<path d="M1030 3315 c0 -11 -11 -15 -40 -15 -43 0 -57 -23 -20 -33 24 -6 60 2
60 14 0 5 18 9 40 9 33 0 40 3 40 20 0 17 -7 20 -40 20 -29 0 -40 -4 -40 -15z"/>
<path d="M1691 3292 c-6 -12 -11 -27 -11 -34 0 -7 7 0 15 16 9 16 13 31 11 33
-2 3 -9 -4 -15 -15z"/>
<path d="M1420 3280 c0 -5 20 -10 45 -10 25 0 45 5 45 10 0 6 -20 10 -45 10
-25 0 -45 -4 -45 -10z"/>
<path d="M1630 3254 c0 -8 7 -22 16 -31 8 -9 13 -22 10 -29 -3 -8 -2 -14 3
-14 15 0 20 51 5 57 -8 3 -14 11 -14 19 0 8 -4 14 -10 14 -5 0 -10 -7 -10 -16z"/>
<path d="M650 3240 c-13 -9 -13 -11 0 -20 8 -5 17 -10 20 -10 3 0 12 5 20 10
13 9 13 11 0 20 -8 5 -17 10 -20 10 -3 0 -12 -5 -20 -10z"/>
<path d="M1428 3216 c-3 -24 0 -32 9 -29 9 4 13 -7 13 -36 0 -39 2 -41 30 -41
23 0 30 -4 30 -20 0 -16 7 -20 38 -20 49 0 69 -23 61 -70 -6 -30 -7 -31 -8 -7
-2 39 -16 34 -27 -10 l-10 -38 -13 44 c-14 48 -20 49 -26 1 -5 -42 -11 -47
-25 -21 -8 15 -20 21 -45 21 -32 0 -35 -3 -35 -29 0 -26 3 -29 40 -33 22 -2
44 0 49 5 14 14 79 -3 84 -22 2 -9 3 -2 1 14 -3 27 -2 28 10 12 12 -15 14 -9
20 48 4 36 9 70 11 77 3 7 1 19 -4 27 -8 12 -12 12 -25 2 -18 -15 -22 -1 -5
16 8 8 8 16 0 30 -6 10 -11 12 -11 6 0 -20 -80 -17 -80 2 0 11 11 15 40 15 29
0 40 4 40 15 0 11 -11 15 -40 15 -38 0 -40 2 -40 30 0 28 -2 30 -39 30 -37 0
-39 -2 -43 -34z m45 7 c-7 -2 -19 -2 -25 0 -7 3 -2 5 12 5 14 0 19 -2 13 -5z
m152 -142 c3 -5 1 -12 -5 -16 -5 -3 -10 1 -10 9 0 18 6 21 15 7z m-140 -111
c4 -6 -7 -10 -25 -10 -18 0 -29 4 -25 10 3 6 15 10 25 10 10 0 22 -4 25 -10z"/>
<path d="M949 3219 c0 -13 -3 -18 -6 -11 -2 6 -9 10 -14 6 -5 -3 -7 -10 -4
-15 8 -12 95 -12 95 1 0 6 -8 10 -17 10 -9 0 -25 7 -35 17 -17 15 -18 15 -19
-8z"/>
<path d="M1270 3219 c0 -19 4 -21 31 -15 17 3 35 6 40 6 5 0 9 7 9 15 0 11
-11 15 -40 15 -34 0 -40 -3 -40 -21z"/>
<path d="M1602 3211 c-7 -4 -10 -15 -6 -25 5 -14 9 -15 16 -4 7 9 8 2 4 -20
-4 -20 -2 -31 4 -27 6 3 10 -2 10 -12 0 -15 2 -16 10 -3 13 20 12 33 -1 24 -8
-5 -10 0 -6 17 7 28 -14 61 -31 50z"/>
<path d="M1128 3193 c12 -2 32 -2 45 0 12 2 2 4 -23 4 -25 0 -35 -2 -22 -4z"/>
<path d="M230 3179 c0 -5 5 -7 10 -4 6 3 10 8 10 11 0 2 -4 4 -10 4 -5 0 -10
-5 -10 -11z"/>
<path d="M1310 3114 c-5 -77 -4 -80 18 -82 19 -2 22 3 22 33 0 37 25 50 33 18
4 -16 5 -16 6 -1 0 9 11 19 24 21 l22 4 -22 2 c-18 1 -22 8 -26 44 l-4 42 -1
-42 c-1 -30 -6 -43 -16 -43 -10 0 -16 14 -19 43 l-4 42 -1 -42 c-1 -24 -6 -43
-11 -43 -6 0 -11 19 -13 43 -3 29 -5 16 -8 -39z"/>
<path d="M1110 3150 c0 -5 18 -10 40 -10 22 0 40 5 40 10 0 6 -18 10 -40 10
-22 0 -40 -4 -40 -10z"/>
<path d="M950 3126 c0 -10 21 -16 74 -21 65 -6 75 -9 80 -28 10 -40 7 -47 -24
-47 -28 0 -30 -2 -20 -20 14 -27 24 -25 45 6 12 19 15 36 10 65 -7 38 -8 39
-46 39 -21 0 -39 5 -39 10 0 6 -18 10 -40 10 -27 0 -40 -4 -40 -14z"/>
<path d="M3060 3131 c0 -10 19 -25 25 -20 1 2 -3 10 -11 17 -8 7 -14 8 -14 3z"/>
<path d="M590 3075 c0 -25 5 -45 10 -45 6 0 10 18 10 39 0 22 5 42 13 44 6 3
2 6 -10 6 -21 1 -23 -4 -23 -44z"/>
<path d="M728 3033 c12 -2 32 -2 45 0 12 2 2 4 -23 4 -25 0 -35 -2 -22 -4z"/>
<path d="M968 3023 c12 -2 32 -2 45 0 12 2 2 4 -23 4 -25 0 -35 -2 -22 -4z"/>
<path d="M791 2994 c0 -11 3 -14 6 -6 3 7 2 16 -1 19 -3 4 -6 -2 -5 -13z"/>
<path d="M1048 2943 c12 -2 32 -2 45 0 12 2 2 4 -23 4 -25 0 -35 -2 -22 -4z"/>
<path d="M1360 2935 c12 -15 30 -12 30 6 0 5 -10 9 -21 9 -18 0 -19 -2 -9 -15z"/>
<path d="M1048 2873 c12 -2 32 -2 45 0 12 2 2 4 -23 4 -25 0 -35 -2 -22 -4z"/>
<path d="M1148 2873 c7 -3 16 -2 19 1 4 3 -2 6 -13 5 -11 0 -14 -3 -6 -6z"/>
<path d="M1227 2855 c6 -17 25 -15 31 3 2 7 -5 12 -17 12 -14 0 -19 -5 -14
-15z"/>
<path d="M1498 2863 c7 -3 16 -2 19 1 4 3 -2 6 -13 5 -11 0 -14 -3 -6 -6z"/>
<path d="M1548 2863 c7 -3 16 -2 19 1 4 3 -2 6 -13 5 -11 0 -14 -3 -6 -6z"/>
<path d="M1600 2835 c5 -21 6 -43 4 -50 -3 -7 0 -16 7 -20 15 -10 7 81 -9 97
-7 7 -8 -1 -2 -27z"/>
<path d="M1463 2837 c5 -15 47 -16 47 -2 0 7 -11 13 -25 13 -14 0 -24 -5 -22
-11z"/>
<path d="M1235 2817 c-4 -10 -5 -21 -1 -24 10 -10 18 4 13 24 -4 17 -4 17 -12
0z"/>
<path d="M1030 2800 c0 -5 13 -10 28 -10 15 0 33 -5 40 -12 9 -9 12 -7 12 10
0 19 -5 22 -40 22 -22 0 -40 -4 -40 -10z"/>
<path d="M1380 2750 c0 -5 11 -10 25 -10 14 0 25 5 25 10 0 6 -11 10 -25 10
-14 0 -25 -4 -25 -10z"/>
<path d="M1510 2750 c0 -5 11 -10 25 -10 14 0 25 5 25 10 0 6 -11 10 -25 10
-14 0 -25 -4 -25 -10z"/>
<path d="M1623 2729 c2 -15 -2 -37 -9 -50 -10 -19 -20 -23 -55 -23 -37 1 -38
0 -9 -3 35 -5 53 -20 43 -36 -3 -5 -9 -3 -14 4 -5 8 -9 10 -9 4 0 -31 36 -43
43 -15 3 11 1 20 -4 20 -5 0 -9 5 -9 12 0 6 3 8 7 5 12 -13 32 64 22 87 -9 19
-9 19 -6 -5z"/>
<path d="M1550 2710 l-45 -6 40 -5 c22 -4 46 -3 54 1 22 12 0 16 -49 10z"/>
<path d="M1430 2700 c0 -5 15 -10 33 -10 24 0 28 3 17 10 -20 13 -50 13 -50 0z"/>
<path d="M928 2683 c7 -3 16 -2 19 1 4 3 -2 6 -13 5 -11 0 -14 -3 -6 -6z"/>
<path d="M1511 2581 c-1 -15 -6 -21 -14 -18 -21 8 -37 -6 -26 -23 7 -12 11
-12 17 -3 4 7 18 11 31 8 17 -3 20 -1 13 8 -5 7 -12 21 -15 32 -4 17 -5 17 -6
-4z"/>
<path d="M1560 2550 c0 -5 5 -10 11 -10 5 0 7 5 4 10 -3 6 -8 10 -11 10 -2 0
-4 -4 -4 -10z"/>
<path d="M1513 2481 c-10 -15 -9 -20 2 -25 10 -3 12 0 8 11 -4 11 -2 14 5 9 8
-5 10 -2 6 8 -8 20 -7 20 -21 -3z"/>
<path d="M1437 2469 c7 -7 15 -10 18 -7 3 3 -2 9 -12 12 -14 6 -15 5 -6 -5z"/>
<path d="M1470 2471 c0 -6 4 -13 10 -16 6 -3 7 1 4 9 -7 18 -14 21 -14 7z"/>
<path d="M1455 2389 c-11 -17 1 -21 15 -4 8 9 8 15 2 15 -6 0 -14 -5 -17 -11z"/>
<path d="M1295 2269 c-4 -6 -5 -12 -2 -15 2 -3 7 2 10 11 7 17 1 20 -8 4z"/>
<path d="M1249 2203 c-13 -16 -12 -17 4 -4 9 7 17 15 17 17 0 8 -8 3 -21 -13z"/>
<path d="M2756 2115 c-9 -26 -7 -32 5 -12 6 10 9 21 6 23 -2 3 -7 -2 -11 -11z"/>
<path d="M2766 1905 c4 -8 8 -15 10 -15 2 0 4 7 4 15 0 8 -4 15 -10 15 -5 0
-7 -7 -4 -15z"/>
<path d="M2617 1811 c-24 -48 -21 -63 4 -22 11 18 18 38 16 44 -2 6 -11 -4
-20 -22z"/>
<path d="M2826 1817 c3 -10 9 -15 12 -12 3 3 0 11 -7 18 -10 9 -11 8 -5 -6z"/>
<path d="M2822 1765 c7 -16 15 -22 21 -16 6 6 4 15 -6 25 -23 23 -28 20 -15
-9z"/>
<path d="M2636 1748 c3 -5 10 -6 15 -3 13 9 11 12 -6 12 -8 0 -12 -4 -9 -9z"/>
<path d="M2615 1700 c-3 -5 -1 -10 4 -10 6 0 11 5 11 10 0 6 -2 10 -4 10 -3 0
-8 -4 -11 -10z"/>
<path d="M2631 1653 c0 -4 4 -17 9 -28 8 -19 9 -19 9 2 1 12 -3 25 -9 28 -5 3
-10 3 -9 -2z"/>
<path d="M2665 1600 c-3 -5 -1 -10 4 -10 6 0 11 5 11 10 0 6 -2 10 -4 10 -3 0
-8 -4 -11 -10z"/>
<path d="M2895 1580 c3 -5 8 -10 11 -10 2 0 4 5 4 10 0 6 -5 10 -11 10 -5 0
-7 -4 -4 -10z"/>
<path d="M2921 1554 c0 -11 3 -14 6 -6 3 7 2 16 -1 19 -3 4 -6 -2 -5 -13z"/>
<path d="M2925 1510 c3 -5 8 -10 11 -10 2 0 4 5 4 10 0 6 -5 10 -11 10 -5 0
-7 -4 -4 -10z"/>
<path d="M2980 1485 c7 -8 17 -15 22 -15 6 0 5 7 -2 15 -7 8 -17 15 -22 15 -6
0 -5 -7 2 -15z"/>
<path d="M2971 1453 c7 -12 15 -20 18 -17 3 2 -3 12 -13 22 -17 16 -18 16 -5
-5z"/>
<path d="M2816 1235 c4 -8 8 -15 10 -15 2 0 4 7 4 15 0 8 -4 15 -10 15 -5 0
-7 -7 -4 -15z"/>
<path d="M2840 1202 c0 -11 8 -18 20 -18 11 0 20 1 20 1 0 0 -9 8 -20 18 -19
16 -20 16 -20 -1z"/>
<path d="M2820 1155 c0 -5 5 -17 10 -25 5 -8 10 -10 10 -5 0 6 -5 17 -10 25
-5 8 -10 11 -10 5z"/>
<path d="M2910 1139 c0 -5 5 -7 10 -4 6 3 10 8 10 11 0 2 -4 4 -10 4 -5 0 -10
-5 -10 -11z"/>
<path d="M2935 950 c-3 -5 -1 -18 4 -27 9 -15 10 -14 9 10 -3 30 -4 32 -13 17z"/>
<path d="M2990 831 c0 -6 4 -13 10 -16 6 -3 7 1 4 9 -7 18 -14 21 -14 7z"/>
<path d="M3045 760 c-3 -5 -1 -10 4 -10 6 0 11 5 11 10 0 6 -2 10 -4 10 -3 0
-8 -4 -11 -10z"/>
<path d="M3110 671 c0 -10 19 -25 25 -20 1 2 -3 10 -11 17 -8 7 -14 8 -14 3z"/>
</g>
</svg>
